#format: frame checksums
#version: 2
#hash: MD5
#extradata 0,                              42, e89deaac1c1a77d78033d7d9c66b8264
#tb 0: 1/61440
#media_type 0: video
#codec_id 0: ffv1
#dimensions 0: 320x180
#sar 0: 0/1
#stream#, dts,        pts, duration,     size, hash
0,          0,          0,     2048,     5764, e41c685a53eae792068d440e2e4facc4
0,       2048,       2048,     2048,     4717, 9ff29ca4c9ea06191d614674ca48dfc4
0,       4096,       4096,     2048,     5601, 0a4bfaff419dfae2265ae3e8a3f758ad
0,       6144,       6144,     2048,     5825, 92993ada27e281dfad04f24a1eef23d7
0,       8192,       8192,     2048,     5139, 95e78779f275dc0e164a6950b1f51e31
0,      10240,      10240,     2048,     5681, 71dc47f1ace123e94eb49082873d29a9
0,      12288,      12288,     2048,     6099, 1ad8e1faafb7263c40d69b149a005ec2
0,      14336,      14336,     2048,     5326, 18528ee6d1c4cfd40a3c366ccd456483
0,      16384,      16384,     2048,     6463, 716bde3d739f3faf567d639c06adce24
0,      18432,      18432,     2048,     6004, 348fa6cdbfa0f189a889b0f5d7e9d530
0,      20480,      20480,     2048,     7251, 2d044302c46cd2536a38a3e618f50671
0,      22528,      22528,     2048,     6109, 2796dee0f182e15a5bea72ec0d375b0e
0,      24576,      24576,     2048,     7007, 52479f1592879e3330ca106913f37df0
0,      26624,      26624,     2048,     7073, eb64ad38d1df3fa1a815e17903b7d990
0,      28672,      28672,     2048,     6267, c0cf0db62af657fe3bb1c637c931d805
0,      30720,      30720,     2048,     6662, 8c031b45741c6dbf6e7e9cb6a2558cfb
0,      32768,      32768,     2048,     7164, 0e761c1139c24267496f3c36dcddbdfb
0,      34816,      34816,     2048,     6226, d8c88a1a16d5037f1f52c1ae921ac92e
0,      36864,      36864,     2048,     7379, 68147e6d5f5354d2e00cbc1110042e7c
0,      38912,      38912,     2048,     7001, 2d26b71c93a1f796269acb6cfe72d554
0,      40960,      40960,     2048,     7729, 690d8ea7d9119040ad719a874bff7c8f
0,      43008,      43008,     2048,     6809, 3d71290a31b30601e2efcf227492cc31
0,      45056,      45056,     2048,     7462, 674134d7cf26b812fe249ebd8fd58b70
0,      47104,      47104,     2048,     7737, a75a9ffdd6aece43bdfe89abd9a321f7
0,      49152,      49152,     2048,     7035, 018aa8df25b8c1df755f0e45fa79c152
0,      51200,      51200,     2048,     7583, 75cfff082d3a599ac407500fdcc85755
0,      53248,      53248,     2048,     7890, 1e50d0e90fc6465326a07b79e101c857
0,      55296,      55296,     2048,     7197, 72d14770775a987112aafa980b4d41b7
0,      57344,      57344,     2048,     8277, 5819538b0ae74c3ae5af25c7c9fcfa98
0,      59392,      59392,     2048,     7890, a1b1a64803855ed7528755ca7528beac
0,      61440,      61440,     2048,     7913, 65fc69608411baab2a3c2e10c0bbfb2f
0,      63488,      63488,     2048,     2966, aa4ab8ca875c5b021e04737e8a056876
0,      65536,      65536,     2048,     3229, 3eb1b36690bbf3b8cba2d37af1ce629d
0,      67584,      67584,     2048,     3160, fd2f98cd940a6eb42b79875f238672e8
0,      69632,      69632,     2048,     2945, 179fdc40001972b5fc0e81bd78ad8dce
0,      71680,      71680,     2048,     3129, 1ab64d9779dae4c2032feee32cf6bfb9
0,      73728,      73728,     2048,     3290, 0e208b4e192b698870f67260246f943d
0,      75776,      75776,     2048,     3088, 753dda68c69d80f8f1e5e62a5e0dbeba
0,      77824,      77824,     2048,     3453, d272c5b1ceb02e73ebe4b80287d239fd
0,      79872,      79872,     2048,     3265, 6700f045dca22b3ca85222bf57c63554
0,      81920,      81920,     2048,     3084, 3152243ce1d0bb44e43fe30eb13c79f3
0,      83968,      83968,     2048,     2654, bfa7782ebcfb62049896ede18fa66245
0,      86016,      86016,     2048,     2920, f0dea9a332dfb84aa94738986b98ecd0
0,      88064,      88064,     2048,     2968, 7a034d69e5dad7cd692febf204570b00
0,      90112,      90112,     2048,     2689, 3acbab301b3087d7b9d0539e16a75251
0,      92160,      92160,     2048,     2942, dee444850e8275ab7f75f19b14f08f85
0,      94208,      94208,     2048,     3055, fe882ae669c495447d0d9ee9a42ef066
0,      96256,      96256,     2048,     2787, 60aa6009b42a2ce964a1bee9b4312641
0,      98304,      98304,     2048,     3188, 434b509a24e207791362153acf9cfe0c
0,     100352,     100352,     2048,     3036, d8f8d2f96e3e8f5b3ccb4315101e6781
0,     102400,     102400,     2048,     3218, 1b8305c868df6233b28a6dd2cd354ab4
0,     104448,     104448,     2048,     2713, b2da1b2ff86534f566330e4ac9ebc25e
0,     106496,     106496,     2048,     3068, e402330f5aaebb4c90fa7ddce36200ad
0,     108544,     108544,     2048,     3079, ca9b429ab6e3dbabafcba66e1f9ab037
0,     110592,     110592,     2048,     2735, ac3d70624ead000aefdff8add908955d
0,     112640,     112640,     2048,     3024, 30354c1efa95dfde65b357f486c6e797
0,     114688,     114688,     2048,     3201, c2962d7c13897d93d584a6895be1a642
0,     116736,     116736,     2048,     2937, 090cadb852448c8ec25222a9dcf12da9
0,     118784,     118784,     2048,     3339, 0994bc33273d84044a25cbb5a4bed676
0,     120832,     120832,     2048,     3086, cd660d1a1860561f0cfe7161713bf84a
0,     122880,     122880,     2048,     7530, a895e4bcfe8ebefbf2bfca51fe8bb87d
0,     124928,     124928,     2048,     6433, 00688d59c157259b3c6fa07b3dd2c4ba
0,     126976,     126976,     2048,     7761, ec966a9488702f7e073ec51d9cca4afc
0,     129024,     129024,     2048,     7322, 0f266447dfbdf5e4dcb1f058e12a19a3
0,     131072,     131072,     2048,     7437, 14c09ce95ca2c0d1ca113772d16a6f23
0,     133120,     133120,     2048,     7609, 7ef78f5371e9370d05939efd3d393607
0,     135168,     135168,     2048,     7813, 01b485302e404c0610e13b6fde24b5aa
0,     137216,     137216,     2048,     7663, c3cd08207cbd1f1271a8950da8db9f27
0,     139264,     139264,     2048,     8501, 75679842e4664d1133b1fd00259117ce
0,     141312,     141312,     2048,     8221, 09cbd608f60ed90a5c5b602918e4ff70
0,     143360,     143360,     2048,     7058, 6df3f2173dde0028cef6a925bae006db
0,     145408,     145408,     2048,     6318, 19485bee0ad6e3f7623c85572abed472
0,     147456,     147456,     2048,     7370, 73e06696f70d8242c1a5a79f8a743b4f
0,     149504,     149504,     2048,     7186, 5b35f7af42d6c19dcf179f9ba5165255
0,     151552,     151552,     2048,     6651, 1006d5439d081b0ab20af5ff305bea32
0,     153600,     153600,     2048,     7311, ddecc947b61756d3be41954f0eafb4b3
0,     155648,     155648,     2048,     7562, d237a694ae5cd9a87136c83b3f7be09a
0,     157696,     157696,     2048,     6228, ca9b744408262f61fed39204ede418fd
0,     159744,     159744,     2048,     7996, f407290dbc034b7d883a8eaddce08444
0,     161792,     161792,     2048,     7551, ae27c2dd1e733965dbd3c81ffa1e419e
0,     163840,     163840,     2048,     8478, cf98c808d72aefcb6aeef0a790a61d5e
0,     165888,     165888,     2048,     7369, 1e7d669e0220644fda56dfec8a5081d7
0,     167936,     167936,     2048,     8284, 50efc622baa0ae2a2c5e66d2898bb7bd
0,     169984,     169984,     2048,     8246, 6e5b72326f8e1a781348a9109ac677a1
0,     172032,     172032,     2048,     7135, af026dcc61fcaede6aa7d7d9221fd93a
0,     174080,     174080,     2048,     8190, f03e7042e604f4eee234f849ef07e841
0,     176128,     176128,     2048,     8421, 8afd5a34b0046ea4b62b790759240b1d
0,     178176,     178176,     2048,     7377, e69a3b7146a6176441a62e708237bf2f
0,     180224,     180224,     2048,     8722, f624952e28d9a43c8c6eaf09cf1a0b91
0,     182272,     182272,     2048,     7910, 452c9eb09db00dc8b15f4236358f15fd
0,     184320,     184320,     2048,     7910, 452c9eb09db00dc8b15f4236358f15fd
